# xmcd
#
# Track frame offsets: 
#        150
#        27746
#        39587
#        63264
#        84078
#        104260
#        130707
#        145311
#
# Disc length: 2404 seconds
#
# Revision: 1
# Processed by: cddbd v1.5.2PL0 Copyright (c) Steve Scherf et al.
# Submitted via: ExactAudioCopyFreeDBPlugin 1.0
#
DISCID=65096208
DTITLE=Mammal Hands - Animalia
DYEAR=2014
DGENRE=Jazz
TTITLE0=Mansions Of Millions Of Years
TTITLE1=Snow Bough
TTITLE2=Kandaiki
TTITLE3=Spinning The Wheel
TTITLE4=Bustle
TTITLE5=Inuit Party
TTITLE6=Street Sweeper
TTITLE7=Tiny Crumb
EXTD=YEAR: 2014
EXTT0=
EXTT1=
EXTT2=
EXTT3=
EXTT4=
EXTT5=
EXTT6=
EXTT7=
PLAYORDER=
